<svg xmlns="http://www.w3.org/2000/svg" xmlns:xlink="http://www.w3.org/1999/xlink" viewBox="0 0 20 20" version="1.1" x="0px" y="0px"><title>02 - icon/distinta</title><desc>Created with Sketch.</desc><g stroke="none" stroke-width="1" fill="none" fill-rule="evenodd"><path d="M5.39999997,3.00028616 L11.7938612,3.00159308 C11.9263948,3.00162017 12.0534957,3.05426545 12.1472323,3.14795963 L15.8577138,6.85676092 C15.951584,6.95058867 16.0042979,7.07788843 16.0042404,7.21061095 L16.0006064,15.6000001 C15.9996651,16.3729616 15.3729618,16.9993934 14.6,17 L5.4,17 C4.62680135,17 4,16.3731986 4,15.6 L4,4.4 C3.9997307,3.67228362 4.55494373,3.0742479 5.26488458,3.00640881 L5.39971387,3 C5.39980925,3 5.39990464,3.00000001 5.39999997,3.00028616 Z M5.49999998,4.00013626 C5.4999546,4.00000001 5.49990918,4 5.49986376,4 L5.40998831,4.00805567 C5.1767406,4.05039163 4.99987889,4.25454011 5,4.5 L5,4.5 L5,15.5 C5,15.7761424 5.22385763,16 5.5,16 L5.5,16 L14.5,16 C14.7760366,15.9997292 14.9998505,15.7760365 15.0002707,15.5000001 L15.0002707,15.5000001 L15.0043302,8.00331097 L12.9999993,8.00165369 C11.8959126,7.99950776 11.0014216,7.10408843 11.0004211,6.00000004 L11.0004211,6.00000004 L11.0008418,4.00163539 Z M10.5,13 C10.7761424,13 11,13.2238576 11,13.5 C11,13.7761424 10.7761424,14 10.5,14 L7.5,14 C7.22385763,14 7,13.7761424 7,13.5 C7,13.2238576 7.22385763,13 7.5,13 L10.5,13 Z M12.5,11 C12.7761424,11 13,11.2238576 13,11.5 C13,11.7761424 12.7761424,12 12.5,12 L7.5,12 C7.22385763,12 7,11.7761424 7,11.5 C7,11.2238576 7.22385763,11 7.5,11 L12.5,11 Z M12.5,9 C12.7761424,9 13,9.22385763 13,9.5 C13,9.77614237 12.7761424,10 12.5,10 L7.5,10 C7.22385763,10 7,9.77614237 7,9.5 C7,9.22385763 7.22385763,9 7.5,9 L12.5,9 Z M12.0142436,4.54841232 L12,6.11509178 C12,6.61579909 12.3632922,7 12.8290377,7 L14.5520729,6.99235319 L12.0142436,4.54841232 Z" fill="#ffffff"/></g></svg>